<svg width="3000" height="1666" viewBox="0 0 1334 900" fill="none" xmlns="http://www.w3.org/2000/svg">
<g opacity="0.09">
<line x1="58" y1="1635.12" x2="1569.58" y2="1635.12" stroke="#2063A1" stroke-width="1.2607"/>
<line x1="58" y1="989.644" x2="1569.58" y2="989.644" stroke="#2063A1" stroke-width="1.2607"/>
<line x1="58" y1="1312.38" x2="1569.58" y2="1312.38" stroke="#2063A1" stroke-width="1.2607"/>
<line x1="58" y1="666.906" x2="1569.58" y2="666.906" stroke="#2063A1" stroke-width="1.2607"/>
<line x1="58" y1="344.166" x2="1569.58" y2="344.166" stroke="#2063A1" stroke-width="1.2607"/>
<line x1="58" y1="1473.75" x2="1569.58" y2="1473.75" stroke="#2063A1" stroke-width="1.2607"/>
<line x1="58" y1="828.274" x2="1569.58" y2="828.274" stroke="#2063A1" stroke-width="1.2607"/>
<line x1="58" y1="1151.01" x2="1569.58" y2="1151.01" stroke="#2063A1" stroke-width="1.2607"/>
<line x1="58" y1="505.536" x2="1569.58" y2="505.536" stroke="#2063A1" stroke-width="1.2607"/>
<line x1="58" y1="182.798" x2="1569.58" y2="182.798" stroke="#2063A1" stroke-width="1.2607"/>
<line x1="58" y1="1554.44" x2="1569.58" y2="1554.44" stroke="#2063A1" stroke-width="1.2607"/>
<line x1="58" y1="908.959" x2="1569.58" y2="908.959" stroke="#2063A1" stroke-width="1.2607"/>
<line x1="58" y1="1231.7" x2="1569.58" y2="1231.7" stroke="#2063A1" stroke-width="1.2607"/>
<line x1="58" y1="586.221" x2="1569.58" y2="586.221" stroke="#2063A1" stroke-width="1.2607"/>
<line x1="58" y1="263.483" x2="1569.58" y2="263.483" stroke="#2063A1" stroke-width="1.2607"/>
<line x1="58" y1="1393.07" x2="1569.58" y2="1393.07" stroke="#2063A1" stroke-width="1.2607"/>
<line x1="58" y1="747.589" x2="1569.58" y2="747.589" stroke="#2063A1" stroke-width="1.2607"/>
<line x1="58" y1="1070.33" x2="1569.58" y2="1070.33" stroke="#2063A1" stroke-width="1.2607"/>
<line x1="58" y1="424.851" x2="1569.58" y2="424.851" stroke="#2063A1" stroke-width="1.2607"/>
<line x1="58" y1="102.113" x2="1569.58" y2="102.113" stroke="#2063A1" stroke-width="1.2607"/>
<line x1="126.275" y1="70.8013" x2="126.275" y2="1238.21" stroke="#2063A1" stroke-width="1.2607"/>
<line x1="771.756" y1="70.8013" x2="771.756" y2="1238.21" stroke="#2063A1" stroke-width="1.2607"/>
<line x1="449.016" y1="70.801" x2="449.016" y2="1238.21" stroke="#2063A1" stroke-width="1.2607"/>
<line x1="1094.49" y1="70.8013" x2="1094.49" y2="1238.21" stroke="#2063A1" stroke-width="1.2607"/>
<line x1="1417.23" y1="70.8013" x2="1417.23" y2="1238.21" stroke="#2063A1" stroke-width="1.2607"/>
<line x1="287.645" y1="70.8013" x2="287.645" y2="1238.21" stroke="#2063A1" stroke-width="1.2607"/>
<line x1="933.122" y1="70.8013" x2="933.122" y2="1238.21" stroke="#2063A1" stroke-width="1.2607"/>
<line x1="610.386" y1="70.8013" x2="610.386" y2="1238.21" stroke="#2063A1" stroke-width="1.2607"/>
<line x1="1255.86" y1="70.801" x2="1255.86" y2="1238.21" stroke="#2063A1" stroke-width="1.2607"/>
<line x1="1578.6" y1="70.8013" x2="1578.6" y2="1238.21" stroke="#2063A1" stroke-width="1.2607"/>
<line x1="206.963" y1="70.8013" x2="206.963" y2="1238.21" stroke="#2063A1" stroke-width="1.2607"/>
<line x1="852.439" y1="70.801" x2="852.439" y2="1238.21" stroke="#2063A1" stroke-width="1.2607"/>
<line x1="529.699" y1="70.8013" x2="529.699" y2="1238.21" stroke="#2063A1" stroke-width="1.2607"/>
<line x1="1175.18" y1="70.8013" x2="1175.18" y2="1238.21" stroke="#2063A1" stroke-width="1.2607"/>
<line x1="1497.92" y1="70.8013" x2="1497.92" y2="1238.21" stroke="#2063A1" stroke-width="1.2607"/>
<line x1="368.333" y1="70.8013" x2="368.333" y2="1238.21" stroke="#2063A1" stroke-width="1.2607"/>
<line x1="1013.81" y1="70.8013" x2="1013.81" y2="1238.21" stroke="#2063A1" stroke-width="1.2607"/>
<line x1="691.069" y1="70.8013" x2="691.069" y2="1238.21" stroke="#2063A1" stroke-width="1.2607"/>
<line x1="1336.55" y1="70.8013" x2="1336.55" y2="1238.21" stroke="#2063A1" stroke-width="1.2607"/>
<line x1="1659.29" y1="70.801" x2="1659.29" y2="1238.21" stroke="#2063A1" stroke-width="1.2607"/>
</g>
<g opacity="0.5">
<rect x="933.181" y="905.955" width="80.2262" height="80.2262" fill="#00427E" fill-opacity="0.5"/>
<rect x="529.758" y="905.955" width="80.2262" height="80.2262" fill="#00427E" fill-opacity="0.2"/>
<rect x="1256.38" y="342.08" width="80.2262" height="79.0801" fill="#00427E" fill-opacity="0.25"/>
<rect x="609.985" y="583.854" width="80.2262" height="79.0801" fill="#00427E" fill-opacity="0.15"/>
<rect x="1175.01" y="422.306" width="80.2262" height="79.0801" fill="#00427E" fill-opacity="0.25"/>
<rect x="529.612" y="342.08" width="80.2262" height="79.0801" fill="#00427E" fill-opacity="0.15"/>
<rect x="1175.01" y="342.08" width="80.2262" height="79.0801" fill="#00427E" fill-opacity="0.25"/>
<rect x="529.612" y="583.854" width="80.2262" height="79.0801" fill="#00427E" fill-opacity="0.15"/>
<rect x="449.531" y="905.955" width="80.2262" height="80.2262" fill="#00427E" fill-opacity="0.2"/>
<rect x="449.531" y="986.181" width="80.2262" height="81.3723" fill="#00427E" fill-opacity="0.2"/>
<rect x="287.933" y="825.729" width="80.2262" height="80.2262" fill="#00427E" fill-opacity="0.2"/>
<rect x="1094.78" y="180.481" width="80.2262" height="80.2262" fill="#00427E" fill-opacity="0.15"/>
<rect x="1013.68" y="99.7939" width="80.2262" height="79.5062" fill="#00427E" fill-opacity="0.15"/>
<rect x="1013.68" y="180.052" width="80.2262" height="80.0285" fill="#00427E" fill-opacity="0.15"/>
<rect x="287.933" y="259.561" width="81.3723" height="82.5184" fill="#00427E" fill-opacity="0.2"/>
<rect x="206.561" y="179.335" width="81.3723" height="80.2262" fill="#00427E" fill-opacity="0.2"/>
<rect x="126.334" y="180.481" width="81.3723" height="80.2262" fill="#00427E" fill-opacity="0.2"/>
<rect x="206.561" y="259.561" width="81.3723" height="82.5184" fill="#00427E" fill-opacity="0.2"/>
<rect x="529.758" y="99.1086" width="81.3723" height="80.2262" fill="#00427E" fill-opacity="0.25"/>
<rect x="287.933" y="421.16" width="80.2262" height="81.3723" fill="#00427E" fill-opacity="0.2"/>
<rect x="1256.38" y="825.729" width="80.2262" height="80.2262" fill="#00427E" fill-opacity="0.15"/>
<rect x="1336.6" y="905.955" width="80.2262" height="80.2262" fill="#00427E" fill-opacity="0.46"/>
</g>
</svg>
