<svg width="1728" height="1332" viewBox="0 0 1728 1332" fill="none" xmlns="http://www.w3.org/2000/svg">
<g clip-path="url(#clip0_209_752)">
<rect width="1728" height="1332" fill="url(#paint0_linear_209_752)"/>
<g opacity="0.09">
<line x1="174" y1="811.644" x2="1685.58" y2="811.644" stroke="#222020" stroke-width="1.2607"/>
<line x1="174" y1="1134.38" x2="1685.58" y2="1134.38" stroke="#222020" stroke-width="1.2607"/>
<line x1="174" y1="488.906" x2="1685.58" y2="488.906" stroke="#222020" stroke-width="1.2607"/>
<line x1="174" y1="166.166" x2="1685.58" y2="166.166" stroke="#222020" stroke-width="1.2607"/>
<line x1="174" y1="1295.75" x2="1685.58" y2="1295.75" stroke="#222020" stroke-width="1.2607"/>
<line x1="174" y1="650.274" x2="1685.58" y2="650.274" stroke="#222020" stroke-width="1.2607"/>
<line x1="174" y1="973.012" x2="1685.58" y2="973.012" stroke="#222020" stroke-width="1.2607"/>
<line x1="174" y1="327.536" x2="1685.58" y2="327.536" stroke="#222020" stroke-width="1.2607"/>
<line x1="174" y1="4.79763" x2="1685.58" y2="4.79763" stroke="#222020" stroke-width="1.2607"/>
<line x1="174" y1="730.959" x2="1685.58" y2="730.959" stroke="#222020" stroke-width="1.2607"/>
<line x1="174" y1="1053.7" x2="1685.58" y2="1053.7" stroke="#222020" stroke-width="1.2607"/>
<line x1="174" y1="408.221" x2="1685.58" y2="408.221" stroke="#222020" stroke-width="1.2607"/>
<line x1="174" y1="85.4828" x2="1685.58" y2="85.4828" stroke="#222020" stroke-width="1.2607"/>
<line x1="174" y1="1215.07" x2="1685.58" y2="1215.07" stroke="#222020" stroke-width="1.2607"/>
<line x1="174" y1="569.589" x2="1685.58" y2="569.589" stroke="#222020" stroke-width="1.2607"/>
<line x1="174" y1="892.329" x2="1685.58" y2="892.329" stroke="#222020" stroke-width="1.2607"/>
<line x1="174" y1="246.851" x2="1685.58" y2="246.851" stroke="#222020" stroke-width="1.2607"/>
<line x1="221.275" y1="137.801" x2="221.275" y2="1305.21" stroke="#2063A1" stroke-width="1.2607"/>
<line x1="866.756" y1="137.801" x2="866.756" y2="1305.21" stroke="#2063A1" stroke-width="1.2607"/>
<line x1="544.016" y1="137.801" x2="544.016" y2="1305.21" stroke="#2063A1" stroke-width="1.2607"/>
<line x1="1189.49" y1="137.801" x2="1189.49" y2="1305.21" stroke="#2063A1" stroke-width="1.2607"/>
<line x1="1512.23" y1="137.801" x2="1512.23" y2="1305.21" stroke="#2063A1" stroke-width="1.2607"/>
<line x1="382.645" y1="137.801" x2="382.645" y2="1305.21" stroke="#2063A1" stroke-width="1.2607"/>
<line x1="1028.12" y1="137.801" x2="1028.12" y2="1305.21" stroke="#2063A1" stroke-width="1.2607"/>
<line x1="705.386" y1="137.801" x2="705.386" y2="1305.21" stroke="#2063A1" stroke-width="1.2607"/>
<line x1="1350.86" y1="137.801" x2="1350.86" y2="1305.21" stroke="#2063A1" stroke-width="1.2607"/>
<line x1="1673.6" y1="137.801" x2="1673.6" y2="1305.21" stroke="#2063A1" stroke-width="1.2607"/>
<line x1="301.963" y1="137.801" x2="301.963" y2="1305.21" stroke="#2063A1" stroke-width="1.2607"/>
<line x1="947.439" y1="137.801" x2="947.439" y2="1305.21" stroke="#2063A1" stroke-width="1.2607"/>
<line x1="624.699" y1="137.801" x2="624.699" y2="1305.21" stroke="#2063A1" stroke-width="1.2607"/>
<line x1="1270.18" y1="137.801" x2="1270.18" y2="1305.21" stroke="#2063A1" stroke-width="1.2607"/>
<line x1="1592.92" y1="137.801" x2="1592.92" y2="1305.21" stroke="#2063A1" stroke-width="1.2607"/>
<line x1="463.333" y1="137.801" x2="463.333" y2="1305.21" stroke="#2063A1" stroke-width="1.2607"/>
<line x1="1108.81" y1="137.801" x2="1108.81" y2="1305.21" stroke="#2063A1" stroke-width="1.2607"/>
<line x1="786.069" y1="137.801" x2="786.069" y2="1305.21" stroke="#2063A1" stroke-width="1.2607"/>
<line x1="1431.55" y1="137.801" x2="1431.55" y2="1305.21" stroke="#2063A1" stroke-width="1.2607"/>
</g>
<g opacity="0.5">
<rect x="1028.18" y="972.955" width="80.2262" height="80.2262" fill="#00427E" fill-opacity="0.5"/>
<rect x="624.758" y="972.955" width="80.2262" height="80.2262" fill="#00427E" fill-opacity="0.2"/>
<rect x="1351.38" y="409.079" width="80.2262" height="79.0801" fill="#00427E" fill-opacity="0.25"/>
<rect x="704.985" y="650.853" width="80.2262" height="79.0801" fill="#00427E" fill-opacity="0.15"/>
<rect x="1270.01" y="489.306" width="80.2262" height="79.0801" fill="#00427E" fill-opacity="0.25"/>
<rect x="624.612" y="409.079" width="80.2262" height="79.0801" fill="#00427E" fill-opacity="0.15"/>
<rect x="1270.01" y="409.079" width="80.2262" height="79.0801" fill="#00427E" fill-opacity="0.25"/>
<rect x="624.612" y="650.853" width="80.2262" height="79.0801" fill="#00427E" fill-opacity="0.15"/>
<rect x="544.531" y="972.955" width="80.2262" height="80.2262" fill="#00427E" fill-opacity="0.2"/>
<rect x="544.531" y="1053.18" width="80.2262" height="81.3723" fill="#00427E" fill-opacity="0.2"/>
<rect x="382.933" y="892.729" width="80.2262" height="80.2262" fill="#00427E" fill-opacity="0.2"/>
<rect x="1189.78" y="247.481" width="80.2262" height="80.2262" fill="#00427E" fill-opacity="0.15"/>
<rect x="1108.68" y="166.794" width="80.2262" height="79.5062" fill="#00427E" fill-opacity="0.15"/>
<rect x="1108.68" y="247.052" width="80.2262" height="80.0285" fill="#00427E" fill-opacity="0.15"/>
<rect x="382.933" y="326.561" width="81.3723" height="82.5184" fill="#00427E" fill-opacity="0.2"/>
<rect x="301.561" y="246.335" width="81.3723" height="80.2262" fill="#00427E" fill-opacity="0.2"/>
<rect x="221.334" y="247.481" width="81.3723" height="80.2262" fill="#00427E" fill-opacity="0.2"/>
<rect x="301.561" y="326.561" width="81.3723" height="82.5184" fill="#00427E" fill-opacity="0.2"/>
<rect x="624.757" y="166.109" width="81.3723" height="80.2262" fill="#00427E" fill-opacity="0.25"/>
<rect x="382.933" y="488.16" width="80.2262" height="81.3723" fill="#00427E" fill-opacity="0.2"/>
<rect x="1351.38" y="892.729" width="80.2262" height="80.2262" fill="#00427E" fill-opacity="0.15"/>
<rect x="1431.6" y="972.955" width="80.2262" height="80.2262" fill="#00427E" fill-opacity="0.46"/>
</g>
</g>
<defs>
<linearGradient id="paint0_linear_209_752" x1="864" y1="0" x2="864" y2="1332" gradientUnits="userSpaceOnUse">
<stop offset="0.0709998" stop-color="#02294C"/>
<stop offset="0.311" stop-color="#002343"/>
<stop offset="0.666"/>
</linearGradient>
<clipPath id="clip0_209_752">
<rect width="1728" height="1332" fill="white"/>
</clipPath>
</defs>
</svg>
